<?xml version="1.0" encoding="utf-8"?>
<!-- Generator: Adobe Illustrator 23.0.1, SVG Export Plug-In . SVG Version: 6.00 Build 0)  -->
<svg version="1.1" id="Layer_1" xmlns="http://www.w3.org/2000/svg" xmlns:xlink="http://www.w3.org/1999/xlink" x="0px" y="0px"
	 viewBox="0 0 487.5 351.9" style="enable-background:new 0 0 487.5 351.9;" xml:space="preserve">
<style type="text/css">
	.st0{fill:#00ABA0;}
	.st1{fill:#0075BF;}
</style>
<g>
	<path class="st0" d="M244.7,351.9c-56.4,0-108.6-25.6-143.1-70.2c-6.3-8.1-4.8-19.9,3.3-26.2c8.2-6.3,19.9-4.8,26.2,3.3
		c27.5,35.4,68.9,55.8,113.6,55.8c59.3,0,111-35.5,132.8-88.7H18.7C8.4,225.9,0,217.6,0,207.2c0-10.3,8.4-18.7,18.7-18.7h384.3
		c5.7,0,11.1,2.6,14.6,7c3.5,4.4,4.9,10.3,3.6,15.8C402.2,294.1,329.7,351.9,244.7,351.9"/>
	<path class="st1" d="M468.8,163.3H84.6c-5.7,0-11.1-2.6-14.6-7c-3.5-4.4-4.9-10.3-3.6-15.8C85.3,57.8,157.8,0,242.8,0
		c56.4,0,108.6,25.6,143.1,70.2c6.3,8.1,4.8,19.9-3.3,26.2c-8.2,6.3-19.9,4.8-26.2-3.3c-27.5-35.4-68.9-55.8-113.6-55.8
		c-59.3,0-111,35.5-132.8,88.7h358.8c10.3,0,18.7,8.4,18.7,18.7S479.1,163.3,468.8,163.3"/>
</g>
</svg>
